#!OML:ASF F:\VICON\USERDATA\INSTALL\rory3\rory3.ASF
:FULLY-SPECIFIED
:DEGREES
143
root 0.333112 17.9122 -3.96992 0.0492387 -7.14747 -9.19372
lowerback 7.92633 3.36114 8.60859
upperback 0.546296 5.31985 2.37364
thorax -3.31926 2.52587 -2.87509
lowerneck -16.3123 -3.05945 -0.76781
upperneck 18.2801 -4.07837 0.279496
head 8.3982 -1.9492 -0.265573
rclavicle 1.28527e-014 2.02512e-014
rhumerus -23.6177 -4.67176 -81.9887
rradius 33.367
rwrist -1.77675
rhand -15.1885 21.8932
rfingers 7.12502
rthumb 10.9829 -7.7995
lclavicle 1.28527e-014 2.02512e-014
lhumerus -40.0595 -1.94996 85.7149
lradius 31.8481
lwrist 4.68022
lhand -22.7181 28.7998
lfingers 7.12502
lthumb 3.71529 58.7472
rfemur 9.05511 8.5998 35.2427
rtibia 19.9793
rfoot -20.6139 -4.58927
rtoes -9.80065
lfemur -28.7699 -9.16504 -3.51769
ltibia 15.6078
lfoot -7.36074 12.9098
ltoes -15.7504
144
root 0.356843 17.8907 -3.79258 0.236302 -7.20056 -8.99615
lowerback 7.83476 3.3802 8.47739
upperback 0.506243 5.32349 2.29143
thorax -3.31328 2.52869 -2.88375
lowerneck -16.524 -3.00207 -0.707496
upperneck 18.2822 -3.99223 0.181866
head 8.43272 -1.91356 -0.301349
rclavicle 9.87214e-014 5.49391e-014
rhumerus -23.5528 -4.70215 -81.9475
rradius 33.2286
rwrist -1.1683
rhand -15.7995 22.8651
rfingers 7.12502
rthumb 10.3936 -6.85804
lclavicle 9.87214e-014 5.49391e-014
lhumerus -40.1463 -1.51696 85.5268
lradius 31.782
lwrist 4.03041
lhand -22.5012 29.076
lfingers 7.12502
lthumb 3.92482 59.0195
rfemur 9.4687 8.64959 34.9179
rtibia 19.9318
rfoot -20.7318 -4.45532
rtoes -9.80899
lfemur -28.7659 -9.32557 -3.60041
ltibia 14.5656
lfoot -7.61775 13.2657
ltoes -15.4964
145
root 0.379694 17.8784 -3.60893 0.365824 -7.31567 -8.89614
lowerback 7.64499 3.4527 8.45402
upperback 0.511257 5.39325 2.20426
thorax -3.18768 2.56897 -2.95203
lowerneck -16.4469 -3.05239 -0.522481
upperneck 17.9639 -4.07712 0.0493128
head 8.30464 -1.95718 -0.381031
rclavicle -7.39091e-014 6.95746e-015
rhumerus -23.4746 -4.80157 -81.965
rradius 33.2969
rwrist -1.24863
rhand -15.9334 22.9242
rfingers 7.12502
rthumb 10.2644 -6.8053
lclavicle -7.39091e-014 6.95746e-015
lhumerus -40.268 -1.3268 85.319
lradius 31.7319
lwrist 3.4898
lhand -22.9607 27.9978
lfingers 7.12502
lthumb 3.48102 57.9491
rfemur 9.87724 8.79857 34.7211
rtibia 20.1303
rfoot -20.926 -4.35342
rtoes -9.76689
lfemur -28.7688 -9.14855 -3.76375
ltibia 14.1444
lfoot -7.79211 13.3657
ltoes -15.3093
146
root 0.404054 17.8516 -3.42362 0.439233 -7.39273 -8.89214
lowerback 7.53351 3.51626 8.52892
upperback 0.488798 5.47166 2.16117
thorax -3.1291 2.60862 -3.0358
lowerneck -16.5641 -3.13777 -0.411396
upperneck 18.0382 -4.20703 -0.0290652
head 8.34628 -2.01808 -0.443707
rclavicle 5.0249e-014 -4.47266e-015
rhumerus -23.2976 -5.00811 -81.9103
rradius 33.138
rwrist -1.17054
rhand -16.2115 23.0576
rfingers 7.12502
rthumb 9.99608 -6.68503
lclavicle 5.0249e-014 -4.47266e-015
lhumerus -40.4219 -1.36829 85.3821
lradius 31.3426
lwrist 4.34292
lhand -25.1879 24.4614
lfingers 7.12502
lthumb 1.33005 54.437
rfemur 10.4304 8.8022 34.6099
rtibia 20.2716
rfoot -21.0504 -4.21598
rtoes -10.4188
lfemur -28.8869 -8.93047 -3.92833
ltibia 14.2986
lfoot -7.72688 13.2839
ltoes -16.7038
147
root 0.427116 17.8289 -3.23883 0.517189 -7.42495 -8.97427
lowerback 7.61733 3.58099 8.67315
upperback 0.364258 5.58708 2.13532
thorax -3.27796 2.65361 -3.16224
lowerneck -16.7603 -3.20694 -0.400662
upperneck 18.3482 -4.31428 -0.00250743
head 8.48654 -2.0619 -0.456933
rclavicle 8.53004e-014 4.47266e-015
rhumerus -23.344 -5.16369 -81.8288
rradius 33.0027
rwrist -1.03564
rhand -16.6439 23.4163
rfingers 7.12502
rthumb 9.57892 -6.34592
lclavicle 8.53004e-014 4.47266e-015
lhumerus -40.6638 -1.43017 85.447
lradius 31.078
lwrist 4.93701
lhand -26.283 21.6897
lfingers 7.12502
lthumb 0.272449 51.6692
rfemur 10.9735 8.89725 34.6193
rtibia 20.393
rfoot -20.9636 -4.09966
rtoes -10.4956
lfemur -29.0918 -8.28755 -4.20926
ltibia 14.9288
lfoot -7.38625 12.4472
ltoes -16.3315
148
root 0.446764 17.8224 -3.05329 0.459088 -7.34485 -8.94638
lowerback 7.77178 3.535 8.55023
upperback 0.327294 5.53813 2.20186
thorax -3.42705 2.62398 -3.03665
lowerneck -16.9284 -3.18096 -0.526694
upperneck 18.4887 -4.24516 -0.0088079
head 8.56696 -2.03707 -0.434957
rclavicle -8.14862e-015 1.36664e-015
rhumerus -23.3514 -4.94981 -81.7456
rradius 32.907
rwrist -1.03522
rhand -16.5025 23.1349
rfingers 7.12502
rthumb 9.71539 -6.62103
lclavicle -8.14862e-015 1.36664e-015
lhumerus -40.975 -0.636428 85.1003
lradius 31.4978
lwrist 3.35819
lhand -23.9225 24.5575
lfingers 7.12502
lthumb 2.55224 54.522
rfemur 11.4441 9.00313 34.5921
rtibia 20.7817
rfoot -20.9526 -4.09892
rtoes -12.0337
lfemur -29.1452 -7.35829 -4.83355
ltibia 15.7981
lfoot -6.81576 11.031
ltoes -13.7542
149
root 0.469498 17.8097 -2.86555 0.325793 -7.04052 -8.77247
lowerback 7.7768 3.42781 8.31925
upperback 0.390324 5.37343 2.23564
thorax -3.40586 2.54903 -2.86004
lowerneck -16.9491 -3.15168 -0.483367
upperneck 18.3509 -4.17689 -0.181111
head 8.5186 -2.02115 -0.49014
rclavicle -4.26455e-015 3.35449e-016
rhumerus -23.3432 -4.91442 -81.6642
rradius 32.9806
rwrist -1.12869
rhand -16.316 22.3741
rfingers 7.12502
rthumb 9.89533 -7.3733
lclavicle -4.26455e-015 3.35449e-016
lhumerus -40.9963 -0.0707443 84.8777
lradius 31.7811
lwrist 2.63959
lhand -21.3615 29.861
lfingers 7.12502
lthumb 5.02535 59.7814
rfemur 11.9131 9.00024 34.4366
rtibia 21.2905
rfoot -20.8673 -4.01453
rtoes -13.9067
lfemur -29.1812 -6.74059 -5.62911
ltibia 16.7192
lfoot -7.18126 10.3089
ltoes -14.4806
150
root 0.493525 17.7718 -2.67914 0.223258 -6.88244 -8.73084
lowerback 7.83407 3.37006 8.29406
upperback 0.449205 5.29657 2.23731
thorax -3.38666 2.51359 -2.83997
lowerneck -17.076 -3.11306 -0.444234
upperneck 18.2927 -4.12567 -0.212719
head 8.51985 -1.99748 -0.502431
rclavicle -3.31388e-014 -2.78299e-014
rhumerus -23.2943 -5.03771 -81.6155
rradius 33.1692
rwrist -1.36445
rhand -15.9323 21.8747
rfingers 7.12502
rthumb 10.2655 -7.85479
lclavicle -3.31388e-014 -2.78299e-014
lhumerus -40.9105 0.196259 84.7786
lradius 31.7191
lwrist 2.87161
lhand -19.7939 34.4741
lfingers 7.12502
lthumb 6.53876 64.3531
rfemur 12.3809 9.10216 34.4155
rtibia 21.8554
rfoot -20.6344 -3.9958
rtoes -15.3149
lfemur -29.2324 -6.37532 -6.13597
ltibia 17.6338
lfoot -6.97765 10.0461
ltoes -15.1495
151
root 0.51806 17.7438 -2.48491 0.0372402 -6.96199 -8.80143
lowerback 8.02204 3.4295 8.41045
upperback 0.509659 5.40148 2.23961
thorax -3.40703 2.56402 -2.9214
lowerneck -17.3808 -3.11785 -0.492888
upperneck 18.4534 -4.14396 -0.0996823
head 8.63267 -1.9949 -0.466279
rclavicle -5.41347e-014 -6.19711e-014
rhumerus -23.26 -5.37405 -81.5047
rradius 33.1063
rwrist -1.44767
rhand -15.487 21.3035
rfingers 7.12502
rthumb 10.6951 -8.40432
lclavicle -5.41347e-014 -6.19711e-014
lhumerus -40.97 0.197299 84.817
lradius 31.156
lwrist 4.15641
lhand -21.1024 30.8448
lfingers 7.12502
lthumb 5.27552 60.7591
rfemur 12.9768 9.28236 34.4997
rtibia 22.446
rfoot -20.3466 -3.8797
rtoes -15.9676
lfemur -28.9605 -6.03263 -6.48633
ltibia 18.4877
lfoot -6.44395 9.68231
ltoes -16.599
152
root 0.542884 17.7378 -2.27188 -0.201473 -7.07783 -8.49678
lowerback 7.90421 3.55483 8.17925
upperback 0.570777 5.52636 2.12462
thorax -3.27306 2.63645 -2.91266
lowerneck -17.2386 -3.18377 -0.409766
upperneck 18.4312 -4.2548 -0.112713
head 8.59752 -2.04338 -0.495035
rclavicle 2.06845e-014 1.47846e-014
rhumerus -23.5709 -5.78915 -81.392
rradius 32.9322
rwrist -1.18039
rhand -15.7115 22.1786
rfingers 7.12502
rthumb 10.4785 -7.54024
lclavicle 2.06845e-014 1.47846e-014
lhumerus -40.9693 0.379652 84.6302
lradius 30.7342
lwrist 4.54215
lhand -21.1212 29.5667
lfingers 7.12502
lthumb 5.25736 59.4815
rfemur 13.6491 9.57352 34.2137
rtibia 23.0452
rfoot -19.8742 -3.7417
rtoes -16.2179
lfemur -28.4803 -5.56157 -7.35699
ltibia 19.3856
lfoot -6.33224 8.93111
ltoes -17.3625
153
root 0.573718 17.7529 -2.04852 -0.295417 -6.99685 -7.99279
lowerback 7.64151 3.62475 7.82035
upperback 0.469561 5.56119 1.91523
thorax -3.24061 2.65773 -2.91988
lowerneck -16.9921 -3.20815 -0.295006
upperneck 18.5332 -4.33046 -0.0718392
head 8.58648 -2.06688 -0.506032
rclavicle -3.97166e-014 -2.56432e-014
rhumerus -24.3054 -6.38944 -81.2765
rradius 32.9962
rwrist -0.581536
rhand -16.3571 23.7191
rfingers 7.12502
rthumb 9.8556 -6.03022
lclavicle -3.97166e-014 -2.56432e-014
lhumerus -41.2575 0.378383 84.4313
lradius 30.3052
lwrist 5.12296
lhand -20.9214 27.8128
lfingers 7.12502
lthumb 5.45026 57.7227
rfemur 14.1462 9.67088 33.6446
rtibia 23.5035
rfoot -19.1811 -3.52119
rtoes -16.4173
lfemur -28.24 -5.2608 -8.43583
ltibia 20.2813
lfoot -5.74664 7.70669
ltoes -17.6722
154
root 0.605447 17.7712 -1.83319 -0.283228 -6.88537 -7.71947
lowerback 7.42982 3.61837 7.6393
upperback 0.386286 5.51938 1.83103
thorax -3.2219 2.63857 -2.89175
lowerneck -17.1661 -3.19642 -0.479724
upperneck 18.868 -4.31853 0.150945
head 8.74176 -2.0468 -0.406918
rclavicle 2.9299e-014 1.19271e-014
rhumerus -24.8558 -6.76388 -81.1516
rradius 33.0521
rwrist -0.163374
rhand -16.4086 23.6888
rfingers 7.12502
rthumb 9.80598 -6.06285
lclavicle 2.9299e-014 1.19271e-014
lhumerus -41.3682 0.494352 84.3445
lradius 29.6226
lwrist 5.57373
lhand -21.8636 23.5132
lfingers 7.12502
lthumb 4.54045 53.4445
rfemur 14.4286 9.49753 33.197
rtibia 23.9914
rfoot -18.2087 -3.13865
rtoes -16.977
lfemur -28.251 -5.09957 -9.11949
ltibia 21.1066
lfoot -4.12533 6.2035
ltoes -16.9462
